<?xml version="1.0" encoding="UTF-8"?>
<svg xmlns="http://www.w3.org/2000/svg" xmlns:xlink="http://www.w3.org/1999/xlink" viewBox="0 0 512 512" width="512px" height="512px">
<g id="surface37385347">
<path style="fill-rule:nonzero;fill:rgb(18.039216%,80.000001%,44.313726%);fill-opacity:1;stroke-width:10;stroke-linecap:butt;stroke-linejoin:round;stroke:rgb(80.000001%,80.000001%,80.000001%);stroke-opacity:1;stroke-miterlimit:10;" d="M 180.094297 225.999121 C 154.781399 225.999121 134.187672 205.405394 134.187672 180.094297 C 134.187672 154.781399 154.781399 134.187672 180.094297 134.187672 C 205.405394 134.187672 225.999121 154.781399 225.999121 180.094297 C 225.999121 205.405394 205.405394 225.999121 180.094297 225.999121 Z M 180.094297 141.25023 C 158.676245 141.25023 141.25023 158.676245 141.25023 180.094297 C 141.25023 201.510548 158.676245 218.938363 180.094297 218.938363 C 201.510548 218.938363 218.938363 201.510548 218.938363 180.094297 C 218.938363 158.676245 201.510548 141.25023 180.094297 141.25023 Z M 197.75069 201.281969 C 196.845373 201.281969 195.941855 200.934601 195.252518 200.247063 L 177.597924 182.590669 C 176.933784 181.93013 176.563018 181.030211 176.563018 180.094297 L 176.563018 155.375345 C 176.563018 153.426122 178.141474 151.844066 180.094297 151.844066 C 182.047119 151.844066 183.625575 153.426122 183.625575 155.375345 L 183.625575 178.63103 L 200.247063 195.252518 C 201.627538 196.634792 201.627538 198.866589 200.247063 200.247063 C 199.557726 200.934601 198.654208 201.281969 197.75069 201.281969 Z M 197.75069 201.281969 " transform="matrix(2.170336,0,0,2.170336,10.752,10.752)"/>
<path style="fill-rule:nonzero;fill:rgb(20.392157%,28.627452%,36.862746%);fill-opacity:1;stroke-width:10;stroke-linecap:butt;stroke-linejoin:round;stroke:rgb(80.000001%,80.000001%,80.000001%);stroke-opacity:1;stroke-miterlimit:10;" d="M 186.094951 4.538266 C 187.677007 6.084325 188.452736 8.191933 188.611122 10.173553 C 188.769507 12.153373 188.427539 14.086397 187.853391 16.014022 C 186.705095 19.872871 184.575889 23.798314 182.266699 27.477179 C 177.646519 34.83491 172.169617 41.154135 172.169617 41.154135 C 171.498278 41.929864 170.524567 42.374424 169.50046 42.374424 L 148.312788 42.374424 C 148.312788 42.374424 142.468719 42.455417 137.95293 43.96188 C 135.695935 44.714211 133.99509 45.83011 133.374146 46.760625 C 132.753203 47.69294 132.418433 48.594658 133.815106 51.389804 C 135.263974 54.28934 136.626451 55.165861 137.918733 55.534827 C 139.211015 55.903793 140.832668 55.691413 142.587508 54.989477 C 146.097189 53.585604 149.347693 50.471887 149.347693 50.471887 C 150.281808 49.537772 151.662283 49.203003 152.922168 49.607966 C 154.180254 50.011129 155.108969 51.085632 155.326749 52.388713 C 156.026886 56.587731 157.970709 58.416365 161.264409 59.733845 C 164.55991 61.053125 169.28448 61.342899 174.052246 60.927136 C 183.587779 60.099212 193.011722 56.71372 193.011722 56.71372 C 194.67297 56.105375 196.526802 56.81991 197.351127 58.383968 C 198.175452 59.948025 197.714694 61.88105 196.274825 62.906956 C 185.027648 70.939626 184.611886 80.359969 186.618703 88.785002 C 188.623721 97.208236 193.515676 103.820835 193.515676 103.820835 C 194.077225 104.569567 194.318403 105.512681 194.185215 106.439596 C 194.052027 107.366512 193.555272 108.203436 192.80474 108.764985 C 186.721294 113.32757 185.391215 119.020452 185.391215 124.034796 C 185.391215 127.656067 186.042755 129.032941 186.480116 130.422415 C 194.775561 129.218324 201.812921 128.476792 206.164925 128.786364 C 211.27646 129.15173 214.69075 130.280228 216.578778 133.11137 C 217.521892 134.527841 217.772069 136.225087 217.613684 137.567765 C 217.455298 138.908643 216.99094 139.972346 216.515784 140.843467 C 215.56727 142.583909 214.372178 143.746603 214.372178 143.746603 C 214.104003 144.014778 213.794431 144.237958 213.454262 144.408943 C 196.429611 152.920368 187.277443 163.830976 182.279298 172.57638 C 177.282952 181.321785 176.53422 187.597814 176.53422 187.597814 C 176.332639 189.197868 175.072753 190.457754 173.472699 190.659336 C 166.806105 191.49266 163.080444 193.110713 160.906242 194.867353 C 158.73204 196.622193 157.787126 198.623611 157.002397 201.370161 C 155.43294 206.866861 155.166564 215.56367 146.898116 221.765906 C 145.371855 222.908802 143.213851 222.633427 142.02236 221.144962 C 135.170383 212.579542 129.531496 208.112348 125.296481 206.136128 C 121.063266 204.161707 118.372511 204.46408 116.158712 205.412593 C 111.732915 207.309621 109.241942 213.115893 109.241942 213.115893 C 108.849577 214.156198 107.992855 214.951726 106.927352 215.264897 C 105.860049 215.576269 104.709954 215.367488 103.820835 214.703348 C 97.661795 210.083169 91.950914 210.185759 87.370331 211.330455 C 82.789748 212.475151 79.805619 214.703348 79.805619 214.703348 C 78.797711 215.45748 77.465832 215.617665 76.308537 215.12631 C 75.149443 214.634955 74.341316 213.564052 74.182931 212.316765 C 72.597275 199.62972 64.258633 193.719057 55.686013 190.452354 C 47.113393 187.187451 38.843145 187.156854 38.843145 187.156854 C 37.086505 187.153254 35.59804 185.857372 35.353263 184.115131 C 35.108485 182.374689 36.182987 180.71884 37.871234 180.231084 C 40.507994 179.478753 41.922665 178.499642 42.6372 177.651919 C 43.351735 176.805996 43.587514 176.014068 43.533519 174.721785 C 43.425528 172.133621 41.341318 167.830212 38.222202 163.67259 C 31.985769 155.355547 22.484433 147.51186 22.484433 147.51186 C 21.427929 146.647939 20.967171 145.251266 21.296541 143.926586 C 21.627711 142.601907 22.691414 141.586799 24.028693 141.318624 C 32.214348 139.682573 35.886014 136.705643 37.608458 133.505534 C 39.332701 130.303626 39.271506 126.225197 38.085414 121.876792 C 35.71323 113.178183 29.023239 104.612763 29.023239 104.612763 C 28.173716 103.552659 28.008131 102.100191 28.596677 100.876303 C 29.185224 99.652414 30.423511 98.874885 31.780588 98.874885 C 33.576824 98.874885 34.530738 98.532916 34.863707 98.329534 C 35.198477 98.126153 35.142682 98.178348 35.223675 97.805782 C 35.38206 97.06065 34.872706 94.41489 33.477833 91.626944 C 30.688087 86.047451 25.567553 79.983803 25.567553 79.983803 C 24.619039 78.876904 24.449855 77.300247 25.140992 76.016964 C 25.830329 74.733681 27.237801 74.004747 28.684869 74.18473 C 28.684869 74.18473 43.099758 75.500411 50.471887 68.128281 C 52.75408 65.846089 52.930464 61.953043 52.154734 58.072596 C 51.379005 54.190349 49.809548 51.017238 49.809548 51.017238 C 49.192204 49.78255 49.34879 48.303085 50.212711 47.226783 C 51.074833 46.150481 52.485904 45.675324 53.823183 46.010093 C 56.348353 46.640036 58.207584 46.101885 60.237799 44.707012 C 62.269814 43.310339 64.246035 40.930955 65.851488 38.319393 C 69.065996 33.098068 70.763242 27.277397 70.763242 27.277397 C 71.132208 25.988715 72.199511 25.020403 73.518791 24.777425 C 74.838071 24.534447 76.180749 25.059999 76.983476 26.132701 L 87.577312 40.257817 C 88.630216 41.663489 88.489829 43.63071 87.246142 44.872597 C 87.246142 44.872597 84.069431 48.35528 83.198311 50.678869 C 82.76275 51.841563 82.87434 51.899158 82.935534 51.969351 C 82.996729 52.037745 84.337607 52.96826 88.281048 52.96826 C 91.871722 52.96826 94.171912 51.841563 96.081539 50.057925 C 97.992965 48.274287 99.427434 45.693322 100.406545 42.953971 C 102.362967 37.47707 102.406163 31.780588 102.406163 31.780588 C 102.406163 30.693487 102.906518 29.66758 103.76324 28.998041 C 104.619962 28.328502 105.73766 28.090923 106.792364 28.353699 L 119.558603 31.546609 C 120.699699 30.751081 125.316279 27.428584 133.11857 23.73172 C 141.813579 19.613694 152.878972 15.675653 163.12724 17.725666 C 163.393616 17.777861 164.766891 17.540283 166.595524 16.35959 C 168.424158 15.178898 170.565963 13.314267 172.58358 11.401042 C 174.601196 9.487816 176.491024 7.543992 178.170272 6.048328 C 179.008995 5.301396 179.748728 4.662454 180.735038 4.109905 C 181.228193 3.83453 181.787942 3.542956 182.707659 3.427767 C 183.627375 3.312577 185.153636 3.618549 186.094951 4.538266 Z M 177.437738 16.525175 C 175.297733 18.555391 172.950746 20.664799 170.430976 22.291851 C 167.911205 23.917103 165.078262 25.315576 161.748565 24.649636 C 154.340439 23.168371 144.21816 26.292887 136.138695 30.119339 C 128.06103 33.945791 122.11797 38.188005 122.11797 38.188005 C 121.275647 38.79095 120.211944 38.992532 119.207635 38.740555 L 109.130352 36.222584 C 108.826179 38.726156 108.252032 41.97666 107.05514 45.326156 C 105.825852 48.767443 103.950423 52.365315 100.896101 55.218056 C 97.839979 58.068996 93.518572 60.030818 88.281048 60.030818 C 83.396293 60.030818 79.881212 59.195694 77.626017 56.616529 C 75.369023 54.039163 75.701992 50.565479 76.591112 48.196894 C 77.516227 45.729319 78.954297 43.657707 80.178185 42.162043 L 74.915464 35.153481 C 73.981349 37.621056 73.930954 38.661362 71.866541 42.016257 C 69.942516 45.144372 67.503738 48.281487 64.238835 50.527682 C 62.401202 51.791167 60.189204 52.568697 57.831418 52.948462 C 58.376768 54.447726 58.659343 54.597112 59.078705 56.693922 C 60.068615 61.639872 60.244998 68.342462 55.464633 73.121027 C 48.628855 79.958605 40.738373 81.042107 34.843909 81.157296 C 36.721138 83.630271 37.900031 84.677776 39.795259 88.468231 C 41.490704 91.857323 42.96657 95.392201 42.133246 99.281648 C 41.717484 101.227271 40.419802 103.20889 38.533573 104.358986 C 38.265398 104.520971 37.856835 104.443578 37.574261 104.578566 C 40.011239 108.178238 43.061962 113.277174 44.899594 120.013962 C 46.361061 125.375674 46.740827 131.450121 43.830492 136.85683 C 41.665289 140.875864 37.1405 143.793399 31.395423 145.994598 C 34.919502 149.183908 39.537882 153.651102 43.879087 159.437576 C 47.381569 164.108151 50.372896 169.072099 50.596076 174.432012 C 50.696867 176.840193 49.793349 179.298769 48.292286 181.417176 C 51.370006 181.969726 54.517919 182.457482 58.196785 183.859554 C 67.113174 187.255845 76.560514 194.507385 79.922609 207.073842 C 81.695447 206.058735 82.240798 205.329801 85.660487 204.474879 C 90.79002 203.191596 97.661795 203.324783 104.517371 207.027047 C 106.07603 204.300295 108.563403 200.975997 113.372566 198.915185 C 117.339405 197.216139 122.593127 197.077552 128.291409 199.73591 C 133.143767 202.001904 138.559475 206.699476 144.511533 213.495658 C 147.771037 209.566616 148.600761 205.077824 150.215214 199.426338 C 151.196125 195.99405 152.90057 192.25579 156.464246 189.377852 C 159.565364 186.87248 164.145947 185.236429 170.114204 184.205123 C 170.650556 181.573762 171.910441 176.476626 176.141856 169.072099 C 181.651155 159.432176 191.775234 147.641449 209.530619 138.554075 C 209.663807 138.404689 210.007576 138.042922 210.322547 137.463374 C 210.446736 137.238395 210.466534 137.121406 210.50793 136.986418 C 210.453935 136.981018 209.483823 136.108098 205.66817 135.836322 C 201.510548 135.539349 194.640573 135.931714 184.205123 137.670356 C 182.569071 137.940331 180.965417 137.036813 180.348073 135.497953 C 180.348073 135.497953 178.328657 130.498008 178.328657 124.034796 C 178.328657 118.334714 180.290479 111.192964 186.21194 105.426289 C 184.462499 102.77153 181.526966 97.893974 179.748728 90.426453 C 178.035284 83.232507 178.456446 74.341316 183.555382 66.328445 C 180.652246 66.949389 177.981289 67.674723 174.658791 67.962696 C 169.275481 68.430654 163.625795 68.279468 158.643848 66.287049 C 155.065773 64.854379 152.339021 61.814456 150.429395 58.065397 C 148.804143 59.395476 148.249793 60.325991 145.20807 61.540881 C 142.549712 62.604584 139.315406 63.275923 135.97311 62.32021 C 132.630814 61.366296 129.578292 58.711538 127.497681 54.548517 C 125.363075 50.279305 125.469265 45.885905 127.497681 42.844181 C 129.524297 39.802458 132.67941 38.270797 135.719333 37.25749 C 141.79738 35.230874 148.312788 35.311866 148.312788 35.311866 L 167.734821 35.311866 C 168.582544 34.312957 172.435993 29.847564 176.280443 23.72632 C 178.40425 20.342628 180.258082 16.764554 181.080607 14.000005 C 181.222794 13.519449 181.172398 13.28187 181.251591 12.862509 C 180.083498 13.985606 178.944201 15.097905 177.437738 16.525175 Z M 129.180528 72.894248 C 131.055957 73.4162 132.155657 75.360024 131.628305 77.239053 L 129.731278 84.046033 C 129.297517 85.602892 127.875647 86.619799 126.331387 86.619799 C 126.014616 86.619799 125.701444 86.576603 125.379274 86.488411 C 123.505644 85.964659 122.405944 84.020836 122.931496 82.143607 L 124.828524 75.342025 C 125.220888 73.932753 126.423179 72.966241 127.787455 72.789857 C 128.241013 72.732263 128.71257 72.76466 129.180528 72.894248 Z M 116.099318 75.907174 C 116.741859 77.006874 116.741859 78.36755 116.099318 79.46725 C 115.458576 80.56695 114.274284 81.236489 113 81.218491 C 85.655087 81.218491 63.562097 103.311481 63.562097 130.656394 C 63.562097 158.001306 85.655087 180.094297 113 180.094297 C 140.344912 180.094297 162.437903 158.001306 162.437903 130.656394 C 162.419904 129.38211 163.089443 128.197817 164.189143 127.557076 C 165.288843 126.914534 166.64952 126.914534 167.749219 127.557076 C 168.848919 128.197817 169.518459 129.38211 169.50046 130.656394 C 169.50046 161.816959 144.160565 187.156854 113 187.156854 C 81.839434 187.156854 56.499539 161.816959 56.499539 130.656394 C 56.499539 99.494028 81.839434 74.155933 113 74.155933 C 114.274284 74.137935 115.458576 74.807474 116.099318 75.907174 Z M 147.601852 81.639652 C 149.194707 82.76275 149.572673 84.96755 148.444176 86.564004 L 144.367546 92.33068 C 143.678209 93.304391 142.585708 93.826344 141.477009 93.826344 C 140.775073 93.826344 140.060538 93.615763 139.443194 93.178403 C 137.850339 92.055305 137.472374 89.850505 138.600871 88.254051 L 142.6775 82.487375 C 143.237249 81.693647 144.068774 81.200492 144.959693 81.045706 C 145.852411 80.89272 146.806325 81.074504 147.601852 81.639652 Z M 162.016741 96.054541 C 163.143438 97.647396 162.761873 99.852196 161.169018 100.978893 L 155.402343 105.055522 C 154.781399 105.492883 154.070464 105.703463 153.368528 105.703463 C 152.263428 105.703463 151.163728 105.18871 150.477991 104.213199 C 149.351293 102.620344 149.734658 100.415544 151.325713 99.288847 L 157.092389 95.212218 C 157.886117 94.648869 158.83463 94.467086 159.727349 94.620072 C 160.618268 94.773058 161.455192 95.259013 162.016741 96.054541 Z M 170.762145 114.475865 C 171.284098 116.354895 170.187998 118.305917 168.314368 118.82787 L 161.512787 120.724897 C 161.192416 120.813089 160.879244 120.856285 160.560673 120.856285 C 159.018214 120.856285 157.601743 119.833978 157.167982 118.27532 C 156.646029 116.398091 157.73493 114.454267 159.61036 113.930515 L 166.417341 112.028088 C 166.887098 111.8985 167.355055 111.873302 167.810414 111.930897 C 169.17469 112.107281 170.369781 113.066594 170.762145 114.475865 Z M 170.762145 114.475865 " transform="matrix(2.170336,0,0,2.170336,10.752,10.752)"/>
<path style=" stroke:none;fill-rule:nonzero;fill:rgb(20.392157%,28.627452%,36.862746%);fill-opacity:1;" d="M 407.289062 18.191406 C 405.292969 18.441406 404.078125 19.074219 403.007812 19.671875 C 400.867188 20.871094 399.261719 22.257812 397.441406 23.878906 C 393.796875 27.125 389.695312 31.339844 385.316406 35.496094 C 380.9375 39.648438 376.289062 43.695312 372.320312 46.257812 C 368.351562 48.820312 365.371094 49.335938 364.792969 49.222656 C 342.550781 44.773438 318.535156 53.320312 299.664062 62.257812 C 282.730469 70.28125 272.710938 77.488281 270.234375 79.21875 L 242.527344 72.289062 C 240.238281 71.71875 237.8125 72.234375 235.953125 73.6875 C 234.09375 75.140625 233.007812 77.367188 233.007812 79.726562 C 233.007812 79.726562 232.914062 92.089844 228.667969 103.976562 C 226.542969 109.921875 223.429688 115.523438 219.28125 119.394531 C 215.136719 123.265625 210.144531 125.710938 202.351562 125.710938 C 193.792969 125.710938 190.882812 123.691406 190.75 123.542969 C 190.617188 123.390625 190.375 123.265625 191.320312 120.742188 C 193.210938 115.699219 200.105469 108.136719 200.105469 108.136719 C 202.804688 105.445312 203.109375 101.175781 200.824219 98.125 L 177.832031 67.46875 C 176.089844 65.140625 173.175781 64 170.3125 64.527344 C 167.449219 65.054688 165.132812 67.15625 164.332031 69.953125 C 164.332031 69.953125 160.648438 82.585938 153.671875 93.917969 C 150.1875 99.585938 145.898438 104.75 141.488281 107.78125 C 137.082031 110.808594 133.046875 111.976562 127.566406 110.609375 C 124.664062 109.882812 121.601562 110.914062 119.730469 113.25 C 117.855469 115.585938 117.515625 118.796875 118.855469 121.476562 C 118.855469 121.476562 122.261719 128.363281 123.945312 136.789062 C 125.628906 145.210938 125.246094 153.660156 120.292969 158.613281 C 104.292969 174.613281 73.007812 171.753906 73.007812 171.753906 C 69.867188 171.367188 66.8125 172.949219 65.316406 175.734375 C 63.816406 178.519531 64.183594 181.941406 66.242188 184.34375 C 66.242188 184.34375 77.355469 197.503906 83.410156 209.613281 C 86.4375 215.664062 87.542969 221.40625 87.199219 223.023438 C 87.023438 223.832031 87.144531 223.71875 86.417969 224.160156 C 85.695312 224.601562 83.625 225.34375 79.726562 225.34375 C 76.78125 225.34375 74.09375 227.03125 72.816406 229.6875 C 71.539062 232.34375 71.898438 235.496094 73.742188 237.796875 C 73.742188 237.796875 88.261719 256.386719 93.410156 275.265625 C 95.984375 284.703125 96.117188 293.554688 92.375 300.503906 C 88.636719 307.449219 80.667969 313.910156 62.902344 317.460938 C 60 318.042969 57.691406 320.246094 56.972656 323.121094 C 56.257812 325.996094 57.257812 329.027344 59.550781 330.902344 C 59.550781 330.902344 80.171875 347.925781 93.707031 365.976562 C 100.476562 375 105 384.339844 105.234375 389.957031 C 105.351562 392.761719 104.839844 394.480469 103.289062 396.316406 C 101.738281 398.15625 98.667969 400.28125 92.945312 401.914062 C 89.28125 402.972656 86.949219 406.566406 87.480469 410.34375 C 88.011719 414.125 91.242188 416.9375 95.054688 416.945312 C 95.054688 416.945312 113.003906 417.011719 131.609375 424.097656 C 150.214844 431.1875 168.3125 444.015625 171.753906 471.550781 C 172.097656 474.257812 173.851562 476.582031 176.367188 477.648438 C 178.878906 478.714844 181.769531 478.367188 183.957031 476.730469 C 183.957031 476.730469 190.433594 471.894531 200.375 469.410156 C 210.316406 466.925781 222.710938 466.703125 236.078125 476.730469 C 238.007812 478.171875 240.503906 478.625 242.820312 477.945312 C 245.132812 477.269531 246.992188 475.542969 247.84375 473.285156 C 247.84375 473.285156 253.25 460.683594 262.855469 456.566406 C 267.660156 454.507812 273.5 453.851562 282.6875 458.136719 C 291.878906 462.425781 304.117188 472.121094 318.988281 490.710938 C 321.574219 493.941406 326.257812 494.539062 329.570312 492.058594 C 347.515625 478.597656 348.09375 459.722656 351.5 447.792969 C 353.203125 441.832031 355.253906 437.488281 359.972656 433.679688 C 364.691406 429.867188 372.777344 426.355469 387.246094 424.546875 C 390.71875 424.109375 393.453125 421.375 393.890625 417.902344 C 393.890625 417.902344 395.515625 404.28125 406.359375 385.300781 C 417.207031 366.320312 437.070312 342.640625 474.019531 324.167969 C 474.757812 323.796875 475.429688 323.3125 476.011719 322.730469 C 476.011719 322.730469 478.605469 320.207031 480.664062 316.429688 C 481.695312 314.539062 482.703125 312.230469 483.046875 309.320312 C 483.390625 306.40625 482.847656 302.722656 480.800781 299.648438 C 476.703125 293.503906 469.292969 291.054688 458.199219 290.261719 C 448.753906 289.589844 433.480469 291.195312 415.476562 293.8125 C 414.527344 290.796875 413.113281 287.808594 413.113281 279.949219 C 413.113281 269.066406 416 256.710938 429.203125 246.808594 C 430.832031 245.589844 431.910156 243.773438 432.199219 241.761719 C 432.488281 239.75 431.964844 237.703125 430.746094 236.078125 C 430.746094 236.078125 420.128906 221.726562 415.777344 203.445312 C 411.421875 185.160156 412.324219 164.714844 436.734375 147.28125 C 439.859375 145.054688 440.859375 140.859375 439.070312 137.464844 C 437.28125 134.070312 433.257812 132.519531 429.652344 133.839844 C 429.652344 133.839844 409.199219 141.1875 388.503906 142.984375 C 378.15625 143.886719 367.902344 143.257812 360.75 140.394531 C 353.601562 137.535156 349.382812 133.566406 347.863281 124.453125 C 347.390625 121.625 345.375 119.292969 342.644531 118.417969 C 339.910156 117.539062 336.914062 118.265625 334.886719 120.292969 C 334.886719 120.292969 327.832031 127.050781 320.214844 130.097656 C 316.40625 131.621094 312.886719 132.082031 310.082031 131.28125 C 307.277344 130.480469 304.320312 128.578125 301.175781 122.285156 C 298.144531 116.21875 298.871094 114.261719 300.21875 112.238281 C 301.566406 110.21875 305.257812 107.796875 310.15625 106.164062 C 319.957031 102.894531 332.640625 102.71875 332.640625 102.71875 L 378.625 102.71875 C 380.847656 102.71875 382.960938 101.753906 384.417969 100.070312 C 384.417969 100.070312 396.304688 86.355469 406.332031 70.386719 C 411.34375 62.402344 415.964844 53.882812 418.457031 45.507812 C 419.703125 41.324219 420.445312 37.128906 420.101562 32.832031 C 419.757812 28.53125 418.074219 23.957031 414.640625 20.601562 C 412.597656 18.601562 409.285156 17.941406 407.289062 18.191406 Z M 404.128906 38.667969 C 403.957031 39.578125 404.066406 40.09375 403.757812 41.136719 C 401.972656 47.136719 397.949219 54.902344 393.339844 62.246094 C 384.996094 75.53125 376.632812 85.222656 374.792969 87.390625 L 332.640625 87.390625 C 332.640625 87.390625 318.5 87.214844 305.308594 91.613281 C 298.710938 93.8125 291.863281 97.136719 287.464844 103.738281 C 283.0625 110.339844 282.832031 119.875 287.464844 129.140625 C 291.980469 138.175781 298.605469 143.9375 305.859375 146.007812 C 313.113281 148.082031 320.132812 146.625 325.902344 144.316406 C 332.503906 141.679688 333.707031 139.660156 337.234375 136.773438 C 341.378906 144.910156 347.296875 151.507812 355.0625 154.617188 C 365.875 158.941406 378.136719 159.269531 389.820312 158.253906 C 397.027344 157.628906 402.828125 156.054688 409.128906 154.707031 C 398.0625 172.097656 397.148438 191.394531 400.867188 207.007812 C 404.726562 223.214844 411.097656 233.800781 414.894531 239.5625 C 402.042969 252.078125 397.785156 267.578125 397.785156 279.949219 C 397.785156 293.976562 402.167969 304.828125 402.167969 304.828125 C 403.507812 308.167969 406.988281 310.128906 410.539062 309.542969 C 433.1875 305.769531 448.097656 304.917969 457.121094 305.5625 C 465.796875 306.179688 467.695312 308.230469 467.628906 308.046875 C 467.535156 308.34375 467.496094 308.597656 467.222656 309.09375 C 466.539062 310.351562 465.792969 311.136719 465.503906 311.460938 C 426.96875 331.183594 404.996094 356.773438 393.039062 377.695312 C 383.855469 393.765625 381.121094 404.828125 379.957031 410.539062 C 367.003906 412.777344 357.0625 416.328125 350.332031 421.765625 C 342.597656 428.011719 338.898438 436.125 336.769531 443.574219 C 333.265625 455.839844 331.464844 465.582031 324.390625 474.109375 C 311.472656 459.359375 299.71875 449.164062 289.1875 444.246094 C 276.820312 438.476562 265.417969 438.777344 256.808594 442.464844 C 246.371094 446.9375 240.972656 454.152344 237.589844 460.070312 C 222.710938 452.035156 207.796875 451.746094 196.664062 454.53125 C 189.242188 456.386719 188.058594 457.96875 184.210938 460.171875 C 176.914062 432.898438 156.410156 417.160156 137.058594 409.789062 C 129.074219 406.746094 122.242188 405.6875 115.5625 404.488281 C 118.820312 399.890625 120.78125 394.554688 120.5625 389.328125 C 120.078125 377.695312 113.585938 366.921875 105.984375 356.785156 C 96.5625 344.226562 86.539062 334.53125 78.890625 327.609375 C 91.359375 322.832031 101.179688 316.5 105.878906 307.777344 C 112.195312 296.042969 111.371094 282.859375 108.199219 271.222656 C 104.210938 256.601562 97.589844 245.535156 92.300781 237.722656 C 92.914062 237.429688 93.800781 237.597656 94.382812 237.246094 C 98.476562 234.75 101.292969 230.449219 102.195312 226.226562 C 104.003906 217.785156 100.800781 210.113281 97.121094 202.757812 C 93.007812 194.53125 90.449219 192.257812 86.375 186.890625 C 99.167969 186.640625 116.292969 184.289062 131.128906 169.449219 C 141.503906 159.078125 141.121094 144.53125 138.972656 133.796875 C 138.0625 129.246094 137.449219 128.921875 136.265625 125.667969 C 141.382812 124.84375 146.183594 123.15625 150.171875 120.414062 C 157.257812 115.539062 162.550781 108.730469 166.726562 101.941406 C 171.207031 94.660156 171.316406 92.402344 173.34375 87.046875 L 184.765625 102.257812 C 182.109375 105.503906 178.988281 110 176.980469 115.355469 C 175.050781 120.496094 174.328125 128.035156 179.226562 133.628906 C 184.121094 139.226562 191.75 141.039062 202.351562 141.039062 C 213.71875 141.039062 223.097656 136.78125 229.730469 130.59375 C 236.359375 124.402344 240.429688 116.59375 243.097656 109.125 C 245.691406 101.855469 246.941406 94.800781 247.601562 89.367188 L 269.472656 94.832031 C 271.652344 95.378906 273.960938 94.941406 275.789062 93.632812 C 275.789062 93.632812 288.6875 84.425781 306.21875 76.121094 C 323.753906 67.816406 345.722656 61.035156 361.800781 64.25 C 369.023438 65.695312 375.175781 62.660156 380.644531 59.132812 C 386.113281 55.601562 391.207031 51.023438 395.851562 46.617188 C 399.121094 43.519531 401.589844 41.105469 404.128906 38.667969 Z M 288.09375 168.730469 C 285.132812 169.113281 282.523438 171.210938 281.671875 174.269531 L 277.554688 189.03125 C 276.414062 193.105469 278.800781 197.324219 282.867188 198.460938 C 283.566406 198.652344 284.246094 198.746094 284.933594 198.746094 C 288.285156 198.746094 291.371094 196.539062 292.3125 193.160156 L 296.429688 178.386719 C 297.574219 174.308594 295.1875 170.089844 291.117188 168.957031 C 290.101562 168.675781 289.078125 168.605469 288.09375 168.730469 Z M 256 171.695312 C 188.371094 171.695312 133.375 226.6875 133.375 294.320312 C 133.375 361.949219 188.371094 416.945312 256 416.945312 C 323.628906 416.945312 378.625 361.949219 378.625 294.320312 C 378.664062 291.554688 377.210938 288.984375 374.824219 287.59375 C 372.4375 286.199219 369.484375 286.199219 367.097656 287.59375 C 364.710938 288.984375 363.257812 291.554688 363.296875 294.320312 C 363.296875 353.667969 315.347656 401.617188 256 401.617188 C 196.652344 401.617188 148.703125 353.667969 148.703125 294.320312 C 148.703125 234.972656 196.652344 187.023438 256 187.023438 C 258.765625 187.0625 261.335938 185.609375 262.726562 183.222656 C 264.121094 180.835938 264.121094 177.882812 262.726562 175.496094 C 261.335938 173.109375 258.765625 171.65625 256 171.695312 Z M 325.363281 186.648438 C 323.429688 186.984375 321.625 188.054688 320.410156 189.777344 L 311.5625 202.292969 C 309.113281 205.757812 309.933594 210.542969 313.390625 212.980469 C 314.730469 213.929688 316.28125 214.386719 317.804688 214.386719 C 320.210938 214.386719 322.582031 213.253906 324.078125 211.140625 L 332.925781 198.625 C 335.375 195.160156 334.554688 190.375 331.097656 187.9375 C 329.371094 186.710938 327.300781 186.316406 325.363281 186.648438 Z M 357.414062 216.109375 C 355.476562 215.777344 353.417969 216.171875 351.695312 217.394531 L 339.179688 226.242188 C 335.726562 228.6875 334.894531 233.472656 337.339844 236.929688 C 338.828125 239.046875 341.214844 240.164062 343.613281 240.164062 C 345.136719 240.164062 346.679688 239.707031 348.027344 238.757812 L 360.542969 229.910156 C 364 227.464844 364.828125 222.679688 362.382812 219.222656 C 361.164062 217.496094 359.347656 216.441406 357.414062 216.109375 Z M 374.957031 253.679688 C 373.96875 253.554688 372.953125 253.609375 371.933594 253.890625 L 357.160156 258.019531 C 353.089844 259.15625 350.726562 263.375 351.859375 267.449219 C 352.800781 270.832031 355.875 273.050781 359.222656 273.050781 C 359.914062 273.050781 360.59375 272.957031 361.289062 272.765625 L 376.050781 268.648438 C 380.117188 267.515625 382.496094 263.28125 381.363281 259.203125 C 380.511719 256.144531 377.917969 254.0625 374.957031 253.679688 Z M 374.957031 253.679688 "/>
<path style=" stroke:none;fill-rule:nonzero;fill:rgb(18.039216%,80.000001%,44.313726%);fill-opacity:1;" d="M 401.617188 501.246094 C 346.679688 501.246094 301.984375 456.550781 301.984375 401.617188 C 301.984375 346.679688 346.679688 301.984375 401.617188 301.984375 C 456.550781 301.984375 501.246094 346.679688 501.246094 401.617188 C 501.246094 456.550781 456.550781 501.246094 401.617188 501.246094 Z M 401.617188 317.3125 C 355.132812 317.3125 317.3125 355.132812 317.3125 401.617188 C 317.3125 448.097656 355.132812 485.921875 401.617188 485.921875 C 448.097656 485.921875 485.921875 448.097656 485.921875 401.617188 C 485.921875 355.132812 448.097656 317.3125 401.617188 317.3125 Z M 445.355469 445.355469 C 448.351562 442.359375 448.351562 437.515625 445.355469 434.515625 L 409.28125 398.441406 L 409.28125 347.96875 C 409.28125 343.738281 405.855469 340.304688 401.617188 340.304688 C 397.378906 340.304688 393.953125 343.738281 393.953125 347.96875 L 393.953125 401.617188 C 393.953125 403.648438 394.757812 405.601562 396.199219 407.035156 L 434.515625 445.355469 C 436.011719 446.847656 437.972656 447.601562 439.9375 447.601562 C 441.898438 447.601562 443.859375 446.847656 445.355469 445.355469 Z M 445.355469 445.355469 "/>
</g>
</svg>
